<svg version="1.0" xmlns="http://www.w3.org/2000/svg"
 width="1500.000000pt" height="600.000000pt" viewBox="0 0 1500.000000 600.000000"
 preserveAspectRatio="xMidYMid meet">

<g transform="translate(0.000000,600.000000) scale(0.100000,-0.100000)"
fill="#000000" stroke="none">
<path d="M13677 3913 c-1 -1 -24 -2 -52 -4 -27 -2 -53 -8 -57 -13 -6 -8 -11
-7 -17 3 -5 8 -10 9 -12 3 -2 -6 -49 -34 -104 -62 -55 -29 -112 -58 -127 -66
-15 -8 -36 -17 -47 -19 -11 -2 -37 -15 -58 -29 -21 -14 -43 -26 -48 -26 -17 0
-58 -48 -111 -130 -26 -41 -51 -77 -54 -80 -4 -3 -9 -13 -13 -22 -3 -10 -11
-18 -16 -18 -6 0 -8 8 -5 18 4 9 -5 4 -19 -13 -14 -16 -23 -33 -20 -38 2 -4
-2 -10 -10 -13 -16 -6 -12 -44 5 -44 5 0 6 5 3 10 -9 14 13 40 34 40 14 0 14
-2 1 -10 -8 -5 -12 -12 -8 -15 7 -8 -27 -45 -41 -45 -5 0 -13 -9 -16 -20 -4
-11 -11 -18 -16 -15 -5 4 -9 -1 -9 -10 0 -8 -6 -18 -14 -21 -8 -3 -18 -18 -21
-34 -3 -16 -13 -31 -21 -34 -11 -4 -12 -10 -2 -31 6 -14 17 -25 25 -25 15 0
18 -16 4 -24 -5 -3 -19 10 -30 30 -12 20 -24 34 -27 31 -9 -9 48 -87 59 -80 6
3 7 1 3 -6 -12 -18 54 -111 78 -110 12 0 111 46 221 102 155 79 199 106 197
119 -2 10 41 84 95 164 l97 147 91 44 90 44 151 -2 151 -1 281 141 c248 124
310 161 272 161 -6 0 -33 -11 -60 -25 -64 -32 -77 -32 -22 1 23 14 42 26 42
27 0 2 -841 3 -843 0z m163 -23 c0 -5 -4 -10 -10 -10 -5 0 -10 5 -10 10 0 6 5
10 10 10 6 0 10 -4 10 -10z m-230 -58 c0 -5 -9 -17 -20 -27 -16 -14 -20 -15
-20 -4 0 16 19 39 32 39 4 0 8 -4 8 -8z m222 -24 c-6 -6 -15 -8 -19 -4 -4 4
-1 11 7 16 19 12 27 3 12 -12z m547 18 c-10 -9 -69 -36 -69 -32 0 7 52 35 64
36 5 0 7 -2 5 -4z m-399 -16 c0 -5 -2 -10 -4 -10 -3 0 -8 5 -11 10 -3 6 -1 10
4 10 6 0 11 -4 11 -10z m-346 -25 c-7 -17 -7 -17 -28 -9 -24 9 -19 24 9 24 18
0 23 -4 19 -15z m36 -5 c0 -5 -4 -10 -10 -10 -5 0 -10 5 -10 10 0 6 5 10 10
10 6 0 10 -4 10 -10z m630 6 c0 -2 -7 -7 -16 -10 -8 -3 -12 -2 -9 4 6 10 25
14 25 6z m-1040 -46 c0 -5 -5 -10 -11 -10 -5 0 -7 5 -4 10 3 6 8 10 11 10 2 0
4 -4 4 -10z m920 -15 c-25 -13 -49 -24 -55 -24 -5 0 10 11 35 24 25 13 50 24
55 24 6 0 -10 -11 -35 -24z m-620 5 c0 -5 -4 -10 -10 -10 -5 0 -10 5 -10 10 0
6 5 10 10 10 6 0 10 -4 10 -10z m550 -35 c0 -2 -18 -14 -40 -25 -22 -11 -40
-18 -40 -15 0 2 17 13 38 24 42 23 42 23 42 16z m-645 -15 c3 -5 -1 -10 -10
-10 -9 0 -13 5 -10 10 3 6 8 10 10 10 2 0 7 -4 10 -10z m175 0 c0 -5 -5 -10
-11 -10 -5 0 -7 5 -4 10 3 6 8 10 11 10 2 0 4 -4 4 -10z m-385 -10 c-3 -5 -10
-10 -16 -10 -5 0 -9 5 -9 10 0 6 7 10 16 10 8 0 12 -4 9 -10z m-73 -29 c-8 -4
-13 -11 -12 -15 10 -32 -29 -61 -46 -34 -8 12 39 58 59 58 8 0 8 -3 -1 -9z
m308 5 c0 -3 -4 -8 -10 -11 -5 -3 -10 -1 -10 4 0 6 5 11 10 11 6 0 10 -2 10
-4z m515 -6 c-4 -6 -69 -10 -164 -10 l-157 0 -64 -33 c-36 -18 -74 -36 -84
-40 -16 -6 -17 -5 -6 8 7 8 18 15 24 15 6 0 34 12 61 28 48 26 58 27 220 32
94 3 171 7 173 8 2 1 0 -2 -3 -8z m-765 -58 c0 -5 -9 -17 -20 -27 -22 -20 -26
-14 -10 16 11 19 30 26 30 11z m240 -17 c0 -8 -7 -15 -15 -15 -9 0 -12 6 -9
15 4 8 10 15 15 15 5 0 9 -7 9 -15z m-220 -19 c0 -3 -4 -8 -10 -11 -5 -3 -10
-1 -10 4 0 6 5 11 10 11 6 0 10 -2 10 -4z m163 -56 c-7 -25 -15 -31 -32 -21
-10 6 -9 12 4 25 22 22 34 20 28 -4z m31 -30 c-18 -35 -30 -44 -40 -29 -5 8
37 55 53 59 1 0 -5 -13 -13 -30z m-124 -19 c0 -12 -20 -25 -27 -18 -7 7 6 27
18 27 5 0 9 -4 9 -9z m-180 -11 c0 -5 -5 -10 -11 -10 -5 0 -7 5 -4 10 3 6 8
10 11 10 2 0 4 -4 4 -10z m-140 -14 c0 -3 -4 -8 -10 -11 -5 -3 -10 -1 -10 4 0
6 5 11 10 11 6 0 10 -2 10 -4z m350 -20 c0 -16 -18 -31 -27 -22 -8 8 5 36 17
36 5 0 10 -6 10 -14z m38 -16 c-7 -10 -14 -18 -15 -16 -6 6 9 36 18 36 5 0 4
-9 -3 -20z m-337 -27 c-10 -17 -10 -16 -11 3 0 23 13 41 18 25 2 -6 -1 -18 -7
-28z m31 5 c-7 -7 -12 -8 -12 -2 0 14 12 26 19 19 2 -3 -1 -11 -7 -17z m204
-5 c-2 -15 -8 -29 -14 -31 -8 -2 -10 29 -3 56 1 1 5 2 10 2 5 0 8 -12 7 -27z
m-81 -22 c7 -23 -14 -71 -32 -71 -17 0 -17 15 2 30 8 7 15 17 15 23 0 6 -13
-1 -28 -16 -32 -31 -42 -34 -42 -12 0 8 7 15 15 15 8 0 22 11 31 25 19 30 31
32 39 6z m165 9 c0 -5 -6 -13 -13 -17 -7 -4 -21 -19 -30 -33 -24 -35 -21 -14
4 26 20 33 39 44 39 24z m-346 -23 c-5 -8 -3 -8 7 1 18 16 29 15 29 -3 0 -8
-9 -15 -19 -15 -11 0 -26 -3 -35 -6 -19 -7 -22 16 -4 34 14 14 31 5 22 -11z
m-119 -27 c-3 -5 -11 -10 -16 -10 -6 0 -7 5 -4 10 3 6 11 10 16 10 6 0 7 -4 4
-10z m185 -10 c0 -5 -4 -10 -10 -10 -5 0 -10 5 -10 10 0 6 5 10 10 10 6 0 10
-4 10 -10z m-220 -6 c0 -3 -7 -12 -15 -21 -20 -19 -32 -10 -14 11 14 15 29 21
29 10z m50 -4 c0 -5 -5 -10 -11 -10 -5 0 -7 5 -4 10 3 6 8 10 11 10 2 0 4 -4
4 -10z m130 0 c0 -5 -4 -10 -10 -10 -5 0 -10 5 -10 10 0 6 5 10 10 10 6 0 10
-4 10 -10z m-90 -30 c0 -5 -4 -10 -10 -10 -5 0 -10 5 -10 10 0 6 5 10 10 10 6
0 10 -4 10 -10z m26 -22 c-3 -7 -9 -21 -12 -30 -4 -10 -15 -18 -25 -18 -11 0
-19 -4 -19 -9 0 -6 -14 -18 -30 -28 -17 -10 -33 -28 -36 -39 -6 -23 10 -63 30
-76 8 -5 7 -8 -1 -8 -7 0 -20 15 -29 33 -9 17 -21 35 -25 38 -5 3 -1 14 8 25
10 11 25 33 33 49 9 17 25 31 37 33 11 2 29 12 39 22 22 22 38 26 30 8z m144
2 c0 -5 -4 -10 -10 -10 -5 0 -10 5 -10 10 0 6 5 10 10 10 6 0 10 -4 10 -10z
m170 0 c0 -12 -80 -54 -87 -46 -3 3 6 10 20 15 14 5 28 15 32 21 3 5 11 8 16
5 5 -4 9 -1 9 4 0 6 2 11 5 11 3 0 5 -4 5 -10z m-432 -25 c0 -28 -22 -52 -33
-35 -3 5 -3 16 2 23 4 6 8 15 9 20 3 15 4 17 13 17 5 0 9 -11 9 -25z m342 15
c0 -5 -5 -10 -11 -10 -5 0 -7 5 -4 10 3 6 8 10 11 10 2 0 4 -4 4 -10z m-195
-10 c3 -5 1 -10 -4 -10 -6 0 -11 5 -11 10 0 6 2 10 4 10 3 0 8 -4 11 -10z m55
-15 c0 -8 -7 -15 -15 -15 -16 0 -20 12 -8 23 11 12 23 8 23 -8z m-50 -115 c-8
-5 -19 -10 -25 -10 -5 0 -3 5 5 10 8 5 20 10 25 10 6 0 3 -5 -5 -10z m-90 -18
c0 -13 -12 -22 -22 -16 -10 6 -1 24 13 24 5 0 9 -4 9 -8z m45 -2 c-3 -5 -12
-10 -18 -10 -7 0 -6 4 3 10 19 12 23 12 15 0z"/>
<path d="M14610 3835 c0 -3 18 -34 39 -68 44 -69 44 -72 -20 -147 -27 -31 -26
-28 6 22 41 64 41 72 -8 140 l-32 45 -235 -118 c-129 -65 -233 -121 -232 -125
2 -3 1 -8 -2 -11 -3 -4 -6 -1 -6 6 0 8 -8 6 -25 -5 -14 -9 -22 -21 -18 -28 4
-6 -1 -5 -10 3 -21 17 -22 8 -1 -13 14 -15 13 -21 -20 -66 -20 -28 -37 -56
-39 -62 -1 -7 -12 -21 -25 -31 -12 -10 -20 -22 -17 -27 3 -5 -2 -15 -10 -24
-8 -8 -15 -19 -14 -23 3 -14 -13 -43 -23 -43 -6 0 -19 -11 -29 -24 -11 -14
-28 -28 -39 -31 -11 -4 -17 -11 -14 -17 4 -7 2 -8 -4 -4 -6 4 -38 -7 -71 -24
-60 -30 -61 -30 -228 -30 -158 0 -171 -2 -222 -25 -30 -14 -60 -33 -67 -43 -7
-9 -14 -12 -14 -6 0 15 -151 -63 -172 -90 -10 -12 -18 -16 -18 -8 0 13 -318
-145 -354 -176 -11 -10 -16 -11 -12 -4 4 7 -11 3 -33 -9 -23 -11 -41 -25 -41
-29 0 -4 -16 -11 -35 -14 -26 -5 -45 -20 -79 -64 -25 -31 -55 -77 -67 -100
-12 -24 -37 -53 -55 -65 -36 -24 -64 -65 -64 -94 0 -11 -22 -52 -50 -92 -27
-40 -49 -75 -49 -79 4 -25 -3 -52 -11 -47 -18 11 -10 -6 35 -76 24 -38 51 -69
60 -69 19 0 535 259 535 268 0 4 -9 18 -20 32 -11 14 -20 28 -20 33 0 4 47 78
105 165 l105 158 105 52 105 52 200 0 200 0 388 194 387 195 60 92 c33 51 72
100 88 109 36 22 80 87 73 106 -3 9 20 53 55 105 40 60 58 96 54 107 -19 50
-95 151 -95 127z m-25 -285 c-24 -26 -32 -18 -9 9 10 11 20 18 23 16 2 -3 -4
-14 -14 -25z m-24 -83 l-23 -22 17 28 c10 15 20 25 23 22 3 -3 -5 -16 -17 -28z
m-21 -31 c0 -3 -4 -8 -10 -11 -5 -3 -10 -1 -10 4 0 6 5 11 10 11 6 0 10 -2 10
-4z m-485 -76 c-19 -21 -45 -27 -45 -10 0 11 30 29 49 30 11 0 10 -5 -4 -20z
m375 -39 c-29 -42 -36 -39 -8 3 13 19 24 33 26 31 3 -2 -6 -18 -18 -34z m-430
-68 c-1 -19 -16 -31 -29 -24 -7 5 -10 14 -7 20 8 12 36 15 36 4z m380 -3 c0
-14 -46 -60 -59 -60 -5 0 5 15 22 34 38 39 37 39 37 26z m-210 -135 c-47 -24
-89 -44 -95 -44 -5 0 28 20 75 44 47 24 90 44 95 44 6 0 -28 -20 -75 -44z
m-110 -50 c0 -2 -14 -12 -31 -21 -17 -8 -28 -11 -24 -4 4 6 17 15 29 20 27 11
26 11 26 5z m-140 -75 c-8 -5 -19 -10 -25 -10 -5 0 -3 5 5 10 8 5 20 10 25 10
6 0 3 -5 -5 -10z m-191 -94 c-2 -2 -15 -9 -29 -15 -24 -11 -24 -11 -6 3 16 13
49 24 35 12z m-799 -20 c0 -3 -4 -8 -10 -11 -5 -3 -10 -1 -10 4 0 6 5 11 10
11 6 0 10 -2 10 -4z m-70 -30 c0 -3 -4 -8 -10 -11 -5 -3 -10 -1 -10 4 0 6 5
11 10 11 6 0 10 -2 10 -4z m35 -16 c-3 -5 -11 -10 -16 -10 -6 0 -7 5 -4 10 3
6 11 10 16 10 6 0 7 -4 4 -10z m705 0 c-8 -5 -102 -10 -213 -10 l-198 0 -108
-52 c-106 -52 -109 -55 -157 -125 -27 -40 -52 -73 -56 -73 -5 0 -8 -5 -8 -10
0 -13 -72 -122 -77 -117 -4 5 49 89 97 155 17 23 26 42 20 42 -5 0 11 21 36
48 25 26 48 45 51 44 3 -2 9 0 12 5 3 4 42 26 86 48 l80 40 215 5 c118 3 220
7 225 8 6 1 3 -3 -5 -8z m-530 -7 c0 -5 -8 -17 -17 -28 -14 -18 -15 -18 -9 -2
3 10 6 23 6 28 0 5 5 9 10 9 6 0 10 -3 10 -7z m-334 -54 c9 -15 -11 -33 -30
-26 -9 4 -13 13 -10 22 7 17 30 20 40 4z m-51 -29 c3 -5 1 -10 -4 -10 -6 0
-11 5 -11 10 0 6 2 10 4 10 3 0 8 -4 11 -10z m255 0 c0 -5 -5 -10 -11 -10 -5
0 -7 5 -4 10 3 6 8 10 11 10 2 0 4 -4 4 -10z m-275 -38 c0 -18 -20 -15 -23 4
-3 10 1 15 10 12 7 -3 13 -10 13 -16z m-45 -52 c0 -5 -5 -10 -11 -10 -5 0 -7
5 -4 10 3 6 8 10 11 10 2 0 4 -4 4 -10z m-105 -10 c3 -5 1 -10 -4 -10 -6 0
-11 5 -11 10 0 6 2 10 4 10 3 0 8 -4 11 -10z m277 -12 c-7 -7 -12 -8 -12 -2 0
14 12 26 19 19 2 -3 -1 -11 -7 -17z m-312 -28 c0 -5 -4 -10 -10 -10 -5 0 -10
5 -10 10 0 6 5 10 10 10 6 0 10 -4 10 -10z m40 -20 c0 -5 -4 -10 -10 -10 -5 0
-10 5 -10 10 0 6 5 10 10 10 6 0 10 -4 10 -10z m45 0 c3 -5 -1 -10 -9 -10 -9
0 -16 5 -16 10 0 6 4 10 9 10 6 0 13 -4 16 -10z m45 -54 c0 -3 -4 -8 -10 -11
-5 -3 -10 -1 -10 4 0 6 5 11 10 11 6 0 10 -2 10 -4z m-60 -16 c0 -5 -4 -10
-10 -10 -5 0 -10 5 -10 10 0 6 5 10 10 10 6 0 10 -4 10 -10z m210 -20 c0 -5
-4 -10 -10 -10 -5 0 -10 5 -10 10 0 6 5 10 10 10 6 0 10 -4 10 -10z m-400 -40
c0 -5 -7 -10 -16 -10 -8 0 -12 5 -9 10 3 6 10 10 16 10 5 0 9 -4 9 -10z m-35
-90 c-3 -5 -11 -10 -16 -10 -6 0 -7 5 -4 10 3 6 11 10 16 10 6 0 7 -4 4 -10z
m455 -20 c8 -16 6 -22 -15 -36 -14 -9 -28 -14 -32 -11 -3 4 6 12 20 18 22 10
24 14 11 26 -16 16 -19 37 -4 28 5 -3 14 -15 20 -25z m-499 -85 c-1 -15 -24
-12 -29 3 -3 9 2 13 12 10 10 -1 17 -7 17 -13z m399 11 c0 -3 -4 -8 -10 -11
-5 -3 -10 -1 -10 4 0 6 5 11 10 11 6 0 10 -2 10 -4z m-60 -31 c0 -2 -13 -11
-30 -20 -38 -19 -40 -11 -2 9 31 17 32 18 32 11z m-300 -20 c0 -8 -7 -15 -15
-15 -16 0 -20 12 -8 23 11 12 23 8 23 -8z m127 -42 c14 -21 12 -23 -27 -43
-23 -12 -44 -19 -47 -17 -2 3 5 8 16 12 17 5 19 9 9 25 -9 14 -9 22 2 35 16
19 29 16 47 -12z m88 17 c-3 -5 -12 -10 -18 -10 -7 0 -6 4 3 10 19 12 23 12
15 0z m-314 -23 c-1 -12 -15 -9 -19 4 -3 6 1 10 8 8 6 -3 11 -8 11 -12z m31
-48 c5 -36 33 -47 70 -26 17 10 33 16 35 13 8 -7 -77 -47 -86 -41 -5 3 -18 21
-30 40 -15 27 -17 35 -6 35 7 0 15 -10 17 -21z"/>
<path d="M12703 3714 c-19 -20 -16 -29 20 -57 33 -25 48 -31 77 -28 20 2 63
78 49 86 -19 12 -87 16 -94 5 -4 -6 -13 -7 -23 -1 -11 6 -21 4 -29 -5z m57
-24 c0 -5 -5 -10 -11 -10 -5 0 -7 5 -4 10 3 6 8 10 11 10 2 0 4 -4 4 -10z"/>
<path d="M12558 3688 c0 -13 0 -30 0 -38 1 -8 -1 -26 -4 -39 -5 -22 -9 -23
-50 -10 -7 2 -12 0 -13 -6 0 -5 5 -10 12 -11 6 0 20 -2 30 -2 9 -1 17 -9 17
-18 0 -9 7 -22 17 -29 10 -7 13 -17 8 -25 -6 -10 -10 -9 -17 4 -20 35 -77 1
-58 -34 8 -16 8 -18 -5 -14 -8 4 -15 11 -15 18 0 6 -5 3 -11 -7 -6 -9 -14 -15
-20 -12 -5 4 -9 2 -9 -4 0 -5 6 -11 13 -14 8 -3 9 -8 1 -16 -8 -8 -14 -5 -24
14 -20 37 -48 31 -41 -9 1 -5 -5 -3 -15 4 -10 9 -12 16 -5 18 16 5 13 39 -4
46 -8 3 -15 1 -15 -4 0 -6 -6 -10 -14 -10 -8 0 -17 -9 -21 -19 -3 -11 -13 -25
-23 -33 -15 -11 -14 -10 1 15 22 34 18 41 -14 28 -34 -13 -77 -96 -62 -119 6
-9 16 -16 22 -14 6 1 11 -2 11 -8 0 -5 -4 -10 -10 -10 -6 0 -6 -9 0 -26 6 -14
10 -39 10 -55 0 -16 5 -29 10 -29 6 0 10 -15 10 -33 0 -19 2 -36 5 -39 3 -2
37 -1 77 4 54 7 85 17 121 40 45 29 47 32 41 67 -4 27 -3 32 5 21 10 -13 12
-13 20 0 6 8 13 11 17 7 4 -3 2 -12 -3 -19 -14 -19 -24 -48 -15 -48 4 0 30 37
57 81 28 45 62 100 77 123 15 22 28 50 28 60 0 11 5 34 12 52 11 31 10 35 -28
77 -21 24 -49 55 -61 70 -28 34 -62 36 -65 5z m29 -51 c-5 -14 19 -17 40 -4 6
4 10 0 9 -11 -1 -12 6 -17 22 -16 12 0 22 -1 22 -4 0 -2 -10 -12 -22 -23 -28
-22 -54 -24 -62 -4 -3 8 -1 15 4 15 6 0 10 -5 10 -12 0 -9 3 -9 12 0 10 10 10
15 -2 22 -8 5 -22 7 -31 5 -12 -4 -16 0 -14 17 3 27 3 28 11 28 3 0 4 -6 1
-13z m-17 -172 c0 -12 -19 -12 -23 0 -4 9 -1 12 9 8 7 -3 14 -7 14 -8z m87
-15 c2 -17 0 -18 -18 -2 -24 21 -24 32 -1 25 10 -2 18 -13 19 -23z m-330 -26
c-3 -3 -12 -4 -19 -1 -8 3 -5 6 6 6 11 1 17 -2 13 -5z m-74 -26 c-4 -7 -8 -16
-8 -20 0 -11 -15 -22 -15 -10 0 19 12 42 22 42 5 0 6 -6 1 -12z m87 -18 c0 -5
-2 -10 -4 -10 -3 0 -8 5 -11 10 -3 6 -1 10 4 10 6 0 11 -4 11 -10z m65 -30 c3
-5 1 -10 -4 -10 -6 0 -11 5 -11 10 0 6 2 10 4 10 3 0 8 -4 11 -10z m49 -9 c4
-5 1 -31 -5 -58 -10 -40 -15 -48 -35 -49 -27 -2 -27 6 4 79 16 37 26 45 36 28z"/>
<path d="M12461 3626 c-10 -12 -9 -14 6 -11 10 2 22 4 26 4 10 1 -1 21 -12 21
-5 0 -14 -6 -20 -14z"/>
<path d="M12525 3620 c-3 -5 -1 -10 4 -10 6 0 11 5 11 10 0 6 -2 10 -4 10 -3
0 -8 -4 -11 -10z"/>
<path d="M12355 3598 c-29 -16 -29 -16 -15 -33 10 -12 10 -15 -1 -15 -8 0 -5
-6 7 -14 21 -16 40 0 23 20 -11 14 -1 46 12 38 5 -3 9 0 9 5 0 14 -10 13 -35
-1z"/>
<path d="M364 3573 c16 -8 35 -16 41 -17 7 -1 19 -7 26 -13 8 -6 129 -69 269
-139 l255 -129 376 -5 377 -5 -127 -200 c-70 -110 -203 -319 -295 -465 -92
-146 -179 -281 -192 -300 l-24 -35 22 -6 c20 -5 21 -7 6 -14 -9 -4 -21 -4 -27
-1 -7 5 -101 -130 -101 -145 0 -2 55 -3 122 -1 l123 4 185 78 c102 42 372 155
600 250 228 96 419 177 423 180 5 4 -55 8 -132 9 -123 1 -141 0 -149 -15 -9
-17 -11 -17 -27 0 -16 15 -34 17 -137 14 -90 -2 -117 0 -114 9 3 7 48 80 101
162 52 83 95 153 95 157 0 4 -7 12 -17 19 -17 13 -10 35 11 35 8 0 16 10 19
21 4 16 11 20 27 16 16 -4 26 3 46 35 14 22 24 41 22 42 -2 1 -20 13 -41 25
-40 25 -45 42 -5 20 47 -27 66 -19 109 48 l41 63 258 0 258 0 52 81 c49 77 51
81 34 100 -13 15 -14 22 -5 33 10 12 17 13 32 3 15 -9 21 -8 33 8 9 12 12 31
9 48 -4 17 -1 27 6 27 8 0 10 -8 6 -22 -6 -22 -6 -22 14 2 11 14 21 28 21 32
0 4 -520 8 -1155 8 -1149 0 -1155 0 -1155 -20 0 -25 -15 -25 -40 0 -11 11 -26
20 -34 20 -24 0 -46 -11 -46 -24 0 -6 -9 -17 -20 -24 -11 -7 -20 -8 -20 -3 0
5 7 11 15 15 8 3 15 12 15 21 0 13 -17 15 -107 15 -104 -1 -107 -1 -79 -17z
m1365 -69 c-18 -19 -38 -34 -43 -33 -6 0 -5 3 2 6 6 2 12 15 12 28 0 19 4 22
22 17 17 -4 20 -2 15 11 -4 11 -2 14 9 10 12 -4 9 -13 -17 -39z m1156 36 c3
-6 -1 -7 -9 -4 -18 7 -21 14 -7 14 6 0 13 -4 16 -10z m-2288 -25 c8 -22 -6
-33 -17 -15 -13 20 -12 30 0 30 6 0 13 -7 17 -15z m2220 -57 c-3 -8 -6 -5 -6
6 -1 11 2 17 5 13 3 -3 4 -12 1 -19z m-752 -262 c11 -8 16 -15 10 -16 -5 0
-23 12 -40 26 -31 26 -6 18 30 -10z m-260 -116 c4 -6 10 -8 15 -5 4 3 19 1 32
-4 21 -9 20 -10 -12 -10 -19 0 -44 6 -54 14 -17 13 -17 15 -4 15 9 0 20 -5 23
-10z m-40 -314 c17 -9 22 -16 13 -19 -16 -5 -48 10 -48 23 0 13 3 13 35 -4z
m-16 -72 c2 -2 2 -7 -2 -10 -9 -9 -57 5 -57 16 0 9 47 4 59 -6z m25 -135 c-3
-8 -25 -30 -47 -49 l-42 -35 29 40 c41 57 78 84 60 44z m86 -103 c0 -3 -4 -8
-10 -11 -5 -3 -10 -1 -10 4 0 6 5 11 10 11 6 0 10 -2 10 -4z m-28 -78 c-6 -6
-15 -8 -19 -4 -4 4 -1 11 7 16 19 12 27 3 12 -12z m-272 -33 c0 -8 -7 -15 -15
-15 -8 0 -15 7 -15 15 0 8 7 15 15 15 8 0 15 -7 15 -15z"/>
<path d="M3096 3565 c-9 -13 -16 -31 -16 -40 0 -15 6 -17 65 -19 26 -1 30 -5
27 -26 -3 -33 -34 -74 -58 -78 -10 -2 -25 -11 -31 -20 -11 -14 -13 -12 -14 14
l-1 29 -10 -28 c-10 -29 -34 -32 -32 -4 3 34 -27 26 -53 -15 -14 -23 -169
-264 -344 -536 -176 -271 -319 -494 -319 -496 0 -1 43 -3 95 -4 70 -1 95 1 95
11 0 9 2 9 8 0 5 -8 31 -11 74 -10 36 1 64 5 61 10 -2 4 1 7 6 7 6 0 11 -4 11
-9 0 -6 23 -10 50 -9 28 0 50 4 50 9 0 6 8 6 19 -1 12 -6 36 -7 63 -1 25 4 54
4 65 0 29 -10 114 -13 138 -4 11 4 31 19 44 34 20 23 23 23 19 6 -3 -11 1 -26
7 -32 10 -9 14 -7 19 10 l7 22 9 -22 c5 -13 14 -23 20 -23 14 0 13 17 -2 23
-7 2 -10 8 -6 12 5 5 17 -2 28 -15 20 -23 20 -23 66 -5 29 11 42 20 34 25 -9
5 -9 9 -1 14 6 4 11 2 11 -4 0 -6 4 -9 9 -6 5 4 7 -3 4 -13 -4 -16 2 -20 36
-26 22 -4 45 -4 51 0 5 3 10 2 10 -4 0 -5 12 -5 30 2 23 9 35 9 50 -1 12 -7
21 -8 25 -2 8 13 45 13 45 0 0 -13 47 -13 55 0 3 6 19 8 36 5 24 -4 29 -2 29
14 0 25 23 43 45 35 15 -6 16 -4 6 14 -6 12 -7 23 -2 26 12 8 34 -21 27 -33
-4 -6 -4 -21 0 -35 5 -19 12 -24 35 -24 25 1 28 4 23 22 -4 12 -8 28 -9 36 0
9 -5 21 -9 29 -5 8 -4 16 4 21 7 4 9 14 5 21 -6 11 -5 11 5 2 7 -7 14 -28 14
-47 1 -29 3 -33 18 -25 12 6 18 6 18 -1 0 -5 -4 -10 -10 -10 -5 0 -9 -11 -8
-25 3 -27 26 -33 47 -12 10 10 14 9 21 -3 7 -12 23 -14 85 -10 42 3 79 2 83
-2 4 -3 19 -4 34 -1 29 5 31 19 13 66 -5 12 -2 17 12 17 24 0 43 -18 37 -35
-3 -7 7 -20 22 -30 26 -17 28 -17 40 0 8 10 11 28 8 40 -3 14 1 27 12 36 16
12 17 12 11 -4 -14 -38 14 -3 78 98 37 57 66 107 66 111 -1 4 -307 7 -681 7
-374 0 -680 1 -680 3 0 2 25 42 56 89 l55 85 678 0 679 0 83 132 c46 72 86
136 87 140 2 5 -300 7 -672 6 -372 -2 -676 -2 -676 0 0 1 25 40 55 87 l55 85
677 0 678 0 93 145 c51 80 95 152 98 160 5 13 -87 15 -801 15 -581 0 -804 -3
-799 -11 3 -6 17 -9 30 -6 32 6 59 -15 51 -38 -5 -12 -14 -16 -30 -11 -12 3
-30 6 -39 6 -9 0 -25 14 -35 30 l-17 30 -122 0 c-118 0 -122 -1 -138 -25z
m414 -35 c0 -11 -4 -20 -10 -20 -5 0 -10 9 -10 20 0 11 5 20 10 20 6 0 10 -9
10 -20z m4 -107 c5 -17 2 -31 -8 -41 -14 -14 -16 -13 -26 12 -7 20 -7 31 3 41
18 21 24 18 31 -12z m981 -113 c7 -12 -38 -12 -75 0 -20 7 -16 8 22 9 26 1 50
-3 53 -9z m-1410 -19 c8 -26 -14 -60 -43 -67 -12 -4 -39 -15 -59 -25 -45 -23
-66 -24 -83 -4 -10 13 -9 15 12 15 13 0 41 9 63 20 22 11 33 20 26 20 -11 0
-11 3 -1 15 10 12 9 15 -6 16 -12 0 -8 4 10 9 16 5 33 7 37 4 4 -2 10 0 14 6
10 16 23 12 30 -9z m-37 -141 c-7 -10 -14 -17 -17 -15 -4 4 18 35 25 35 2 0
-1 -9 -8 -20z m455 -137 c-5 -12 -7 -12 -14 -1 -5 7 -9 19 -9 27 0 11 3 11 14
1 8 -6 12 -18 9 -27z m17 -42 c0 -12 -20 -25 -27 -18 -7 7 6 27 18 27 5 0 9
-4 9 -9z m818 -105 c-10 -24 -38 -44 -38 -28 0 13 31 52 40 52 5 0 5 -11 -2
-24z m-630 -278 c-2 -6 -10 -14 -16 -16 -7 -2 -10 2 -6 12 7 18 28 22 22 4z
m-855 -59 c-13 -12 -46 -15 -50 -3 -2 6 9 11 27 11 17 0 27 -4 23 -8z m1394
-76 c-3 -10 -5 -2 -5 17 0 19 2 27 5 18 2 -10 2 -26 0 -35z m-867 23 c0 -3 -4
-8 -10 -11 -5 -3 -10 -1 -10 4 0 6 5 11 10 11 6 0 10 -2 10 -4z m360 -12 c0
-8 -5 -12 -10 -9 -6 4 -8 11 -5 16 9 14 15 11 15 -7z m-1014 -40 c4 -16 12
-23 20 -20 8 3 14 -1 14 -9 0 -23 -28 -6 -44 26 -8 16 -10 29 -5 29 5 0 12
-12 15 -26z m1356 -9 c-2 -19 -8 -35 -13 -35 -10 0 -11 16 -3 48 10 35 20 26
16 -13z m-572 15 c0 -5 -2 -10 -4 -10 -3 0 -8 5 -11 10 -3 6 -1 10 4 10 6 0
11 -4 11 -10z m181 -8 c-7 -2 -18 1 -23 6 -8 8 -4 9 13 5 13 -4 18 -8 10 -11z
m-276 -2 c3 -5 -1 -10 -9 -10 -9 0 -16 5 -16 10 0 6 4 10 9 10 6 0 13 -4 16
-10z m618 -51 c-5 -19 -6 -19 -22 -2 -9 9 -18 28 -19 40 l-2 23 24 -21 c15
-13 22 -28 19 -40z m-1193 21 c0 -5 -4 -10 -10 -10 -5 0 -10 5 -10 10 0 6 5
10 10 10 6 0 10 -4 10 -10z m1100 3 c-14 -3 -31 -10 -37 -15 -9 -8 -13 -6 -13
4 0 9 12 14 38 15 24 0 28 -1 12 -4z m-1260 -13 c0 -5 -5 -10 -11 -10 -5 0 -7
5 -4 10 3 6 8 10 11 10 2 0 4 -4 4 -10z"/>
<path d="M5073 3470 c-43 -67 -112 -173 -154 -238 -42 -64 -155 -238 -250
-387 -96 -148 -201 -312 -234 -363 -86 -133 -82 -124 -67 -129 6 -3 9 -10 5
-16 -4 -7 0 -8 11 -4 10 4 41 7 69 8 47 1 49 2 25 11 -27 9 -39 28 -18 28 6 0
10 -4 10 -8 0 -16 76 -4 114 17 21 12 43 20 50 17 6 -2 3 -5 -6 -5 -10 -1 -18
-5 -18 -11 0 -5 -7 -10 -15 -10 -8 0 -15 -5 -15 -11 0 -6 7 -8 16 -5 9 3 27 9
40 12 13 3 24 13 24 22 0 12 4 12 21 -4 20 -18 22 -18 34 -1 11 16 14 15 31
-8 19 -25 51 -36 38 -12 -5 9 -4 9 6 0 20 -19 3 -29 -28 -17 -19 7 -35 7 -50
1 -34 -15 -26 -27 9 -15 21 7 33 7 38 1 9 -15 81 -9 93 7 8 12 9 12 4 -2 -7
-24 7 -22 30 3 14 16 15 23 7 26 -22 8 -14 23 12 23 30 0 54 37 34 52 -11 8
-10 9 3 4 13 -4 42 33 129 169 l112 175 88 0 88 0 169 -147 c94 -82 202 -175
242 -208 39 -33 83 -72 96 -86 23 -24 30 -26 134 -27 88 -2 114 1 126 13 20
19 35 19 28 0 -5 -12 2 -15 34 -15 35 0 39 2 35 20 -4 14 0 20 11 20 11 0 16
-7 14 -17 -2 -15 5 -19 39 -21 33 -2 42 0 37 11 -6 18 21 43 31 27 4 -6 1 -17
-5 -25 -10 -13 -8 -15 13 -15 14 0 30 7 35 16 6 11 11 13 16 5 9 -14 46 -15
46 -1 0 6 9 5 23 -3 12 -8 40 -15 62 -16 l40 -2 71 108 c38 60 106 165 149
235 l80 127 90 1 90 0 269 -235 269 -235 103 2 c73 1 101 5 98 13 -3 6 1 12 8
12 7 0 23 3 36 7 23 8 32 -8 10 -18 -7 -3 1 -3 17 1 17 3 43 12 59 19 38 18
46 18 62 -3 10 -15 15 -16 25 -5 7 6 20 12 28 12 9 0 39 12 66 25 28 14 58 25
67 25 9 0 19 4 23 9 3 5 20 13 38 16 17 4 58 16 90 27 32 11 61 18 64 15 2 -3
-30 -23 -74 -43 -94 -46 -105 -55 -87 -72 10 -9 19 -10 32 -3 14 8 23 5 35
-10 9 -10 21 -19 27 -19 14 0 12 27 -2 33 -7 2 -10 8 -6 12 7 7 21 -3 59 -40
20 -19 21 -19 17 -1 -1 10 3 21 11 24 10 3 13 -1 9 -15 -4 -13 0 -19 13 -20
10 -1 21 2 24 8 3 5 -1 6 -9 3 -21 -8 -20 6 0 20 9 7 19 27 23 46 4 20 14 36
22 38 13 2 16 -7 14 -53 -1 -63 11 -70 50 -30 28 27 31 41 13 48 -10 4 -10 6
0 6 14 1 33 -39 24 -53 -2 -5 1 -7 9 -4 8 2 22 27 31 54 9 27 18 45 18 39 4
-32 10 -49 18 -54 5 -3 11 -15 13 -26 3 -14 13 -21 37 -23 31 -3 45 12 20 21
-7 2 -1 4 14 3 16 0 28 -4 28 -8 0 -4 9 -10 20 -13 11 -4 18 -11 14 -16 -4 -7
7 -9 27 -7 29 3 34 6 31 27 -2 20 0 22 13 11 8 -7 12 -16 10 -21 -3 -4 3 -8
12 -9 10 0 49 -3 88 -5 47 -3 72 0 77 8 6 9 10 9 16 1 9 -15 64 -15 59 0 -2 6
0 22 5 35 6 17 4 31 -7 50 l-16 26 20 -22 c10 -13 24 -23 29 -23 5 0 13 -7 16
-16 8 -22 8 -22 -11 -20 -12 0 -19 -7 -21 -21 -3 -21 0 -23 57 -22 38 1 59 5
55 11 -4 6 1 8 14 4 15 -5 22 -2 27 14 6 20 25 28 25 10 0 -5 -4 -10 -10 -10
-5 0 -10 -4 -10 -10 0 -16 15 -12 40 10 26 22 37 25 42 10 3 -11 58 9 58 22 0
4 13 5 30 3 16 -2 32 1 36 6 13 22 132 91 144 84 4 -3 34 4 66 15 33 11 71 20
87 20 15 0 27 4 27 8 0 17 85 8 98 -11 23 -31 54 -16 99 48 23 33 42 65 43 70
0 7 -233 10 -680 9 -374 0 -680 2 -680 4 0 2 24 42 53 88 l52 84 529 0 529 0
-43 31 c-32 24 -39 33 -30 42 9 9 16 7 29 -9 22 -28 59 -47 76 -40 9 3 12 0 8
-10 -5 -13 14 -15 130 -13 133 1 135 1 146 25 6 14 11 40 11 59 0 24 6 38 20
45 11 6 20 17 20 24 0 8 11 21 25 30 14 9 25 23 25 31 0 8 4 15 8 15 5 0 14
11 20 25 l12 25 -665 -2 c-588 -3 -665 -1 -660 12 4 8 27 48 53 87 l47 73 663
0 664 0 -7 30 c-4 17 -2 30 3 30 12 0 26 -30 23 -47 -4 -23 8 -14 36 28 25 38
26 42 10 54 -21 15 -22 25 -3 25 8 0 24 13 36 30 12 16 27 30 34 30 7 0 31 28
52 62 49 79 49 78 30 78 -9 0 -16 -8 -16 -18 0 -21 -29 -64 -30 -44 0 7 -4 10
-10 7 -7 -4 -7 3 0 20 6 15 10 28 10 31 0 2 -344 4 -765 4 l-765 0 10 -26 c15
-39 12 -42 -15 -9 -14 17 -24 24 -25 16 0 -11 -4 -11 -18 2 -17 15 -65 17
-488 17 l-470 0 -434 -204 c-239 -112 -459 -215 -487 -229 -29 -14 -53 -22
-53 -19 1 4 65 106 144 227 l143 220 -508 3 -508 2 -490 -229 c-270 -126 -491
-227 -491 -225 0 2 13 23 29 46 53 77 261 399 261 403 0 3 -34 5 -76 5 -47 0
-73 -4 -69 -10 3 -5 1 -10 -4 -10 -6 0 -11 5 -11 10 0 6 -70 10 -190 10 l-190
0 -77 -120z m3514 -192 c-101 -156 -261 -404 -357 -553 -95 -148 -175 -272
-176 -274 -2 -2 -123 104 -270 235 -146 132 -276 247 -287 256 -12 9 -19 19
-16 23 4 3 80 40 170 81 90 42 202 93 249 115 674 314 856 398 862 399 4 0
-75 -127 -175 -282z m-3047 265 c0 -5 -4 -15 -10 -23 -11 -18 -25 -7 -17 15 6
15 27 21 27 8z m2754 -33 c-10 -4 -21 -6 -24 -3 -8 7 24 22 34 16 5 -4 1 -10
-10 -13z m886 3 c28 -25 25 -37 -5 -17 -14 9 -25 20 -25 25 0 13 7 11 30 -8z
m1430 -7 c0 -3 -4 -8 -10 -11 -5 -3 -10 -1 -10 4 0 6 5 11 10 11 6 0 10 -2 10
-4z m-2710 -76 c0 -5 -4 -10 -10 -10 -5 0 -10 5 -10 10 0 6 5 10 10 10 6 0 10
-4 10 -10z m-1269 -187 c-59 -93 -166 -258 -237 -368 -71 -110 -143 -221 -159
-247 -17 -27 -33 -47 -37 -45 -11 3 -426 371 -427 378 -1 3 16 13 37 21 34 15
756 349 867 403 28 13 53 24 57 24 4 1 -42 -74 -101 -166z m3845 112 c-21 -16
-32 -13 -21 4 3 6 14 11 23 11 15 -1 15 -2 -2 -15z m-2726 -185 c0 -5 -5 -10
-11 -10 -5 0 -7 5 -4 10 3 6 8 10 11 10 2 0 4 -4 4 -10z m-2844 -45 c16 -13
17 -16 4 -25 -20 -13 -25 -13 -40 5 -11 14 -6 35 9 35 4 0 16 -7 27 -15z
m3750 -40 c-10 -27 -23 -8 -18 27 5 31 6 32 15 11 5 -12 7 -29 3 -38z m-86 25
c0 -5 -4 -10 -10 -10 -5 0 -10 5 -10 10 0 6 5 10 10 10 6 0 10 -4 10 -10z
m138 -70 c12 0 17 -18 14 -52 -1 -10 3 -18 9 -18 5 0 7 -4 4 -10 -10 -16 -25
-12 -25 6 0 14 -2 15 -17 3 -15 -12 -16 -12 -11 8 3 12 -2 34 -12 51 -21 34
-15 50 10 27 9 -8 22 -15 28 -15z m-1341 -12 c-3 -8 -6 -5 -6 6 -1 11 2 17 5
13 3 -3 4 -12 1 -19z m1148 13 c3 -5 1 -12 -5 -16 -5 -3 -10 1 -10 9 0 18 6
21 15 7z m42 -13 c-3 -8 -6 -5 -6 6 -1 11 2 17 5 13 3 -3 4 -12 1 -19z m863
-78 c0 -5 -6 -10 -14 -10 -8 0 -18 5 -21 10 -3 6 3 10 14 10 12 0 21 -4 21
-10z m-2580 -10 c0 -5 -4 -10 -10 -10 -5 0 -10 5 -10 10 0 6 5 10 10 10 6 0
10 -4 10 -10z m2490 -5 c0 -8 -9 -15 -20 -15 -11 0 -20 7 -20 15 0 8 9 15 20
15 11 0 20 -7 20 -15z m-2530 -5 c0 -5 -4 -10 -10 -10 -5 0 -10 5 -10 10 0 6
5 10 10 10 6 0 10 -4 10 -10z m-1130 -7 c0 -5 -5 -15 -10 -23 -8 -12 -10 -11
-10 8 0 12 5 22 10 22 6 0 10 -3 10 -7z m848 -31 c2 -7 -3 -12 -12 -12 -9 0
-16 7 -16 16 0 17 22 14 28 -4z m172 8 c0 -5 -4 -10 -10 -10 -5 0 -10 5 -10
10 0 6 5 10 10 10 6 0 10 -4 10 -10z m30 0 c0 -5 -5 -10 -11 -10 -5 0 -7 5 -4
10 3 6 8 10 11 10 2 0 4 -4 4 -10z m-1213 -162 c-3 -8 -6 -5 -6 6 -1 11 2 17
5 13 3 -3 4 -12 1 -19z m383 -128 c0 -5 -4 -10 -10 -10 -5 0 -10 5 -10 10 0 6
5 10 10 10 6 0 10 -4 10 -10z m2756 1 c-8 -12 -46 -21 -46 -11 0 9 18 18 38
19 7 1 11 -3 8 -8z m-73 -18 c-24 -9 -13 -25 12 -19 46 12 26 -11 -30 -34 -54
-22 -89 -19 -51 4 10 6 28 21 39 34 11 12 25 22 31 21 6 0 5 -3 -1 -6z m-293
-33 c0 -5 -5 -10 -11 -10 -5 0 -7 5 -4 10 3 6 8 10 11 10 2 0 4 -4 4 -10z
m730 -10 c0 -5 -4 -10 -10 -10 -5 0 -10 5 -10 10 0 6 5 10 10 10 6 0 10 -4 10
-10z m480 -34 c0 -3 -4 -8 -10 -11 -5 -3 -10 -1 -10 4 0 6 5 11 10 11 6 0 10
-2 10 -4z m-1325 -55 c0 -9 -11 -15 -27 -15 -27 -2 -36 12 -21 28 12 12 48 2
48 -13z m1045 9 c0 -5 -2 -10 -4 -10 -3 0 -8 5 -11 10 -3 6 -1 10 4 10 6 0 11
-4 11 -10z m16 -28 c-13 -14 -18 -14 -28 -3 -11 11 -11 13 0 7 7 -4 15 -1 18
8 3 9 11 13 16 10 6 -4 4 -13 -6 -22z m-601 -2 c3 -5 -1 -10 -9 -10 -9 0 -16
5 -16 10 0 6 4 10 9 10 6 0 13 -4 16 -10z m-4075 -27 c0 -10 -6 -13 -16 -9
-10 4 -25 -1 -36 -10 -22 -21 -34 -13 -19 13 6 10 11 14 11 10 0 -5 10 -1 22
7 24 17 38 13 38 -11z m1845 17 c3 -5 2 -10 -4 -10 -5 0 -13 5 -16 10 -3 6 -2
10 4 10 5 0 13 -4 16 -10z m1305 -16 c0 -8 -4 -12 -10 -9 -5 3 -10 13 -10 21
0 8 5 12 10 9 6 -3 10 -13 10 -21z m1064 -11 c9 -22 -8 -14 -28 13 -18 25 -18
25 3 12 11 -7 23 -18 25 -25z m-2424 -5 c0 -5 -9 -8 -20 -8 -22 0 -28 26 -7
33 12 4 27 -10 27 -25z m-444 4 c10 -15 8 -17 -12 -17 -24 2 -47 15 -25 15 7
0 9 5 6 10 -3 6 0 10 7 10 7 0 18 -8 24 -18z m579 8 c-3 -5 -16 -10 -28 -9
-21 0 -21 1 -2 9 28 12 37 12 30 0z m32 -5 c0 -8 -4 -15 -9 -15 -10 0 -11 14
-1 23 9 10 10 9 10 -8z m1293 -27 c0 -5 -5 -8 -11 -8 -5 0 -7 5 -4 10 3 6 -1
10 -9 10 -10 0 -13 6 -10 15 6 14 8 13 20 -2 7 -10 14 -21 14 -25z m216 25 c9
-13 9 -22 2 -31 -8 -10 -13 -9 -23 5 -12 16 -10 43 2 43 3 0 12 -8 19 -17z
m904 13 c0 -2 -7 -7 -16 -10 -8 -3 -12 -2 -9 4 6 10 25 14 25 6z m-620 -14 c0
-12 -46 -32 -54 -24 -4 3 4 12 16 19 27 15 38 16 38 5z m545 -12 c3 -5 -1 -10
-10 -10 -9 0 -13 5 -10 10 3 6 8 10 10 10 2 0 7 -4 10 -10z m-2795 -4 c0 -3
-4 -8 -10 -11 -5 -3 -10 -1 -10 4 0 6 5 11 10 11 6 0 10 -2 10 -4z m58 -19 c3
-12 -2 -16 -17 -14 -29 4 -38 16 -21 27 20 13 34 7 38 -13z m2842 3 c0 -5 -5
-10 -11 -10 -5 0 -7 5 -4 10 3 6 8 10 11 10 2 0 4 -4 4 -10z m-4540 -10 c0 -5
-5 -10 -11 -10 -5 0 -7 5 -4 10 3 6 8 10 11 10 2 0 4 -4 4 -10z m1980 1 c0 -6
-4 -13 -10 -16 -5 -3 -10 1 -10 9 0 9 5 16 10 16 6 0 10 -4 10 -9z m2650 0 c0
-6 -4 -13 -10 -16 -5 -3 -10 1 -10 9 0 9 5 16 10 16 6 0 10 -4 10 -9z"/>
<path d="M10600 3268 c-113 -177 -213 -338 -224 -357 -10 -20 -22 -38 -25 -41
-14 -12 -61 -90 -53 -90 5 0 21 13 36 29 24 25 31 41 35 72 1 4 11 9 24 12 55
13 112 40 160 76 29 21 69 45 91 52 21 8 49 26 62 41 13 17 33 28 48 28 13 0
26 4 28 10 8 25 111 118 136 123 15 3 44 17 65 31 21 14 46 26 57 26 10 0 23
8 29 17 5 10 12 15 16 11 4 -3 20 -2 37 2 19 6 36 5 48 -2 14 -9 25 -9 44 0
19 8 26 8 30 -1 3 -7 3 -2 1 9 -4 15 2 26 17 37 13 8 34 24 47 36 19 16 32 20
57 15 35 -6 84 18 84 42 0 7 19 19 43 25 23 7 46 16 51 20 5 4 -4 28 -20 53
l-28 45 -346 0 -345 1 -205 -322z"/>
<path d="M12486 3557 c-14 -11 -16 -18 -9 -32 11 -19 21 -10 28 25 5 24 4 24
-19 7z"/>
<path d="M12730 3550 c0 -17 2 -19 14 -8 14 13 12 28 -5 28 -5 0 -9 -9 -9 -20z"/>
<path d="M12416 3532 c-3 -6 1 -12 9 -16 8 -3 15 -10 15 -16 0 -6 -4 -8 -10
-5 -5 3 -10 -1 -10 -9 0 -18 2 -18 23 -10 9 3 13 13 10 24 -7 25 -29 44 -37
32z"/>
<path d="M12282 3510 c-7 -11 -10 -20 -6 -20 7 0 34 27 34 34 0 13 -16 5 -28
-14z"/>
<path d="M3040 3479 c0 -5 5 -7 10 -4 6 3 10 8 10 11 0 2 -4 4 -10 4 -5 0 -10
-5 -10 -11z"/>
<path d="M11559 3473 c-1 -5 -1 -12 0 -16 1 -5 -7 -6 -17 -3 -12 4 -28 -3 -45
-18 -31 -29 -34 -41 -11 -50 20 -8 94 4 94 15 0 5 7 9 15 9 11 0 10 7 -6 35
-21 35 -28 41 -30 28z m21 -54 c0 -5 -4 -9 -10 -9 -5 0 -10 7 -10 16 0 8 5 12
10 9 6 -3 10 -10 10 -16z"/>
<path d="M10567 3423 c-4 -3 -7 -11 -7 -17 0 -6 5 -5 12 2 6 6 9 14 7 17 -3 3
-9 2 -12 -2z"/>
<path d="M10530 3380 c0 -5 5 -10 10 -10 6 0 10 5 10 10 0 6 -4 10 -10 10 -5
0 -10 -4 -10 -10z"/>
<path d="M11328 3357 c-46 -21 -61 -37 -36 -37 6 0 3 -8 -7 -20 -10 -11 -22
-17 -27 -14 -6 4 -5 -4 2 -16 6 -12 9 -24 6 -28 -3 -3 -6 -1 -6 5 0 6 -17 14
-37 18 -21 4 -43 11 -49 16 -19 15 -174 -13 -174 -32 0 -5 -5 -9 -11 -9 -6 0
-24 -9 -40 -21 -16 -11 -29 -17 -29 -12 0 4 -4 3 -8 -2 -4 -6 -19 -16 -34 -24
-15 -8 -25 -18 -22 -23 3 -4 10 -6 15 -3 16 11 10 -11 -8 -27 -10 -9 -37 -25
-60 -37 -35 -17 -43 -27 -43 -48 0 -25 -1 -25 -13 -9 -10 14 -18 16 -31 9 -17
-9 -17 -11 -1 -27 10 -9 25 -14 35 -11 17 5 36 -18 31 -38 -1 -4 12 -13 29
-19 17 -5 35 -20 42 -32 11 -20 10 -20 -9 -3 -11 9 -27 17 -36 17 -9 0 -24 14
-33 31 -15 31 -17 31 -71 26 -30 -3 -67 -14 -81 -24 -15 -10 -47 -25 -72 -34
-29 -10 -45 -21 -44 -32 1 -11 -7 -15 -26 -15 -15 1 -41 -10 -58 -22 -33 -25
-41 -40 -20 -40 7 0 -10 -15 -37 -32 -68 -46 -68 -46 -87 -52 -10 -3 -34 -31
-54 -61 -35 -56 -35 -57 -17 -78 18 -22 18 -22 -3 -5 -20 18 -21 17 -69 -60
-27 -42 -55 -87 -63 -99 -13 -21 -12 -23 12 -34 14 -7 23 -15 21 -20 -3 -4 -1
-10 5 -14 5 -3 10 -1 10 4 0 19 18 12 25 -9 7 -21 39 -27 65 -10 9 6 17 5 21
-2 5 -7 15 -3 30 11 24 22 49 28 49 11 0 -5 -6 -10 -14 -10 -8 0 -18 -5 -22
-12 -5 -8 0 -9 14 -6 12 4 25 2 28 -3 8 -14 24 -10 24 6 0 8 -5 15 -12 15 -6
0 -8 3 -5 7 4 3 -1 12 -11 20 -15 13 -15 14 0 9 9 -2 22 2 29 10 10 13 14 12
30 -2 11 -10 19 -13 19 -9 0 5 14 -4 30 -20 37 -36 39 -25 3 15 -14 17 -34 30
-43 30 -9 0 -29 13 -44 29 -16 16 -39 32 -53 36 -14 3 -33 14 -42 23 -22 21
-34 52 -21 52 6 0 10 -9 10 -19 0 -21 25 -35 43 -24 7 3 9 3 5 -2 -8 -8 118
-95 139 -95 7 0 17 -8 22 -19 7 -13 18 -17 38 -14 22 4 25 2 13 -6 -16 -11
-12 -13 33 -15 21 -1 26 2 22 13 -3 9 -3 12 1 8 4 -4 14 -1 22 6 13 10 14 8 9
-13 -4 -14 -4 -19 -1 -12 8 17 22 15 27 -5 4 -17 5 -17 6 0 1 22 21 23 21 0 0
-16 1 -15 13 1 14 19 74 28 127 19 28 -5 31 -7 15 -13 -11 -4 -23 -3 -26 3 -9
13 -42 0 -37 -15 3 -7 24 -13 51 -13 25 -1 44 1 42 4 -6 10 80 8 86 -2 9 -12
31 1 24 14 -3 5 0 6 8 3 14 -5 142 59 153 77 3 5 14 9 25 9 11 0 17 5 14 10
-4 6 -10 8 -15 5 -13 -8 -24 16 -22 50 1 16 -2 44 -7 61 -6 22 -5 36 2 43 8 8
-37 11 -166 11 -97 0 -177 2 -177 6 0 3 31 53 68 112 78 123 85 139 69 146 -7
3 -4 4 7 3 14 -1 40 32 108 138 48 77 91 150 94 163 11 39 31 24 88 -63 31
-47 61 -85 66 -85 10 0 15 50 11 98 -1 12 -12 39 -23 59 -20 33 -20 36 -4 30
10 -4 25 -7 34 -7 13 0 12 -3 -4 -15 -10 -8 -14 -15 -8 -15 6 0 21 11 33 24
13 14 40 28 62 31 25 4 39 12 39 21 0 9 4 13 9 10 5 -3 20 3 34 15 15 11 29
20 31 20 41 4 51 15 40 43 -9 24 -107 20 -166 -7z m-268 -122 c0 -8 -4 -15
-10 -15 -5 0 -7 7 -4 15 4 8 8 15 10 15 2 0 4 -7 4 -15z m-56 -11 c9 -3 16
-10 16 -15 0 -6 -8 -6 -19 0 -10 6 -22 7 -26 3 -5 -4 -5 -1 -1 6 8 14 9 14 30
6z m200 -24 c14 -5 26 -17 26 -26 0 -16 -1 -16 -18 -1 -9 9 -29 20 -42 26 -17
6 -19 10 -8 10 9 1 28 -3 42 -9z m-254 -10 c0 -5 -2 -10 -4 -10 -3 0 -8 5 -11
10 -3 6 -1 10 4 10 6 0 11 -4 11 -10z m120 6 c0 -3 -4 -8 -10 -11 -5 -3 -10
-1 -10 4 0 6 5 11 10 11 6 0 10 -2 10 -4z m-153 -42 c-6 -7 -37 7 -37 16 0 15
35 16 38 2 2 -7 2 -16 -1 -18z m73 -34 c0 -5 -4 -10 -10 -10 -5 0 -10 5 -10
10 0 6 5 10 10 10 6 0 10 -4 10 -10z m-830 -610 c0 -5 -8 -10 -17 -10 -15 0
-16 2 -3 10 19 12 20 12 20 0z m320 -10 c0 -5 -2 -10 -4 -10 -3 0 -8 5 -11 10
-3 6 -1 10 4 10 6 0 11 -4 11 -10z m475 -70 c-28 -12 -37 -12 -30 0 3 6 16 10
28 9 21 0 21 -1 2 -9z m-841 -15 c-4 -8 -11 -15 -16 -15 -6 0 -5 6 2 15 7 8
14 15 16 15 2 0 1 -7 -2 -15z m94 -49 c-16 -29 -30 -4 -16 27 11 22 14 23 19
9 4 -9 2 -25 -3 -36z m675 47 c-7 -2 -19 -2 -25 0 -7 3 -2 5 12 5 14 0 19 -2
13 -5z"/>
<path d="M11594 3338 c-3 -4 -16 -5 -30 -2 -18 5 -24 2 -24 -10 0 -9 -12 -19
-27 -22 -34 -9 -90 -39 -111 -61 -9 -8 -28 -20 -44 -25 -15 -6 -28 -14 -28
-19 0 -5 -9 -18 -21 -30 -14 -14 -22 -36 -24 -75 -2 -30 -9 -62 -15 -69 -10
-12 9 -46 98 -177 78 -117 116 -164 131 -166 15 -2 24 3 27 15 3 10 27 32 54
48 27 17 50 32 50 35 0 4 16 12 35 19 19 6 44 25 55 41 11 16 33 31 48 35 37
8 67 35 75 67 5 17 12 25 21 22 7 -3 16 3 20 12 7 19 -3 36 -139 241 -72 108
-83 121 -113 125 -18 2 -35 0 -38 -4z m31 -108 c3 -5 1 -10 -4 -10 -6 0 -11 5
-11 10 0 6 2 10 4 10 3 0 8 -4 11 -10z m211 -167 c20 -27 16 -38 -6 -18 -20
18 -26 35 -14 35 4 0 13 -8 20 -17z m-126 -143 c0 -5 -4 -10 -10 -10 -5 0 -10
5 -10 10 0 6 5 10 10 10 6 0 10 -4 10 -10z m90 -4 c0 -3 -4 -8 -10 -11 -5 -3
-10 -1 -10 4 0 6 5 11 10 11 6 0 10 -2 10 -4z"/>
<path d="M12142 3261 c-23 -38 -42 -73 -42 -80 0 -6 -4 -11 -8 -11 -9 0 -96
-133 -108 -163 -7 -18 2 -21 66 -17 19 1 44 7 55 14 11 7 40 16 64 19 49 6 92
41 91 73 0 32 -5 68 -12 89 -3 11 -9 37 -13 58 -4 23 -11 37 -20 37 -8 0 -15
9 -15 19 0 40 -17 28 -58 -38z"/>
<path d="M11260 3310 c0 -5 5 -10 10 -10 6 0 10 5 10 10 0 6 -4 10 -10 10 -5
0 -10 -4 -10 -10z"/>
<path d="M12473 3095 c-32 -14 -112 -31 -160 -34 -7 -1 -10 -7 -7 -14 2 -7 -7
-23 -20 -36 -21 -20 -23 -27 -14 -45 6 -11 10 -23 9 -26 -1 -2 3 -6 9 -8 8 -3
10 3 5 17 -4 15 -2 21 9 21 24 0 29 -20 11 -40 -17 -19 -17 -20 1 -27 11 -3
22 -10 25 -15 3 -4 47 44 97 107 51 63 87 115 80 115 -7 -1 -27 -7 -45 -15z"/>
<path d="M2090 3009 c0 -5 5 -7 10 -4 6 3 10 8 10 11 0 2 -4 4 -10 4 -5 0 -10
-5 -10 -11z"/>
<path d="M12147 2965 c-6 -14 -66 -17 -77 -3 -10 13 -56 -4 -65 -25 -9 -20
-19 -22 -85 -24 -74 -2 -76 -2 -106 -39 -18 -21 -40 -38 -51 -39 -10 -1 -30
-13 -45 -28 -15 -15 -32 -27 -37 -27 -6 0 -8 -6 -5 -14 5 -14 -20 -46 -36 -46
-16 0 -23 22 -9 31 8 5 9 9 3 9 -5 0 -25 -16 -44 -35 -19 -19 -39 -35 -45 -35
-7 0 -20 -9 -29 -19 -17 -19 -11 -29 161 -285 98 -146 181 -266 184 -266 7 0
411 632 438 685 19 37 16 60 -15 100 -13 18 -24 38 -24 45 0 9 -3 10 -13 1
-11 -8 -18 -6 -32 9 -21 23 -60 26 -68 5z m71 -34 c3 -8 -1 -12 -9 -9 -7 2
-15 10 -17 17 -3 8 1 12 9 9 7 -2 15 -10 17 -17z m62 -61 c0 -5 -4 -10 -10
-10 -5 0 -10 5 -10 10 0 6 5 10 10 10 6 0 10 -4 10 -10z m-626 -186 c5 -14 4
-15 -9 -4 -17 14 -19 20 -6 20 5 0 12 -7 15 -16z m6 -55 c0 -6 -4 -7 -10 -4
-5 3 -10 11 -10 16 0 6 5 7 10 4 6 -3 10 -11 10 -16z m73 -42 c7 -19 -8 -43
-17 -28 -4 6 -4 15 -1 21 3 6 -1 7 -9 4 -9 -3 -16 -1 -16 5 0 16 37 14 43 -2z
m77 -62 c11 -13 10 -14 -4 -9 -9 3 -16 10 -16 15 0 13 6 11 20 -6z m-77 -120
c-3 -9 -8 -14 -10 -11 -3 3 -2 9 2 15 9 16 15 13 8 -4z m130 -9 c6 -15 -11
-36 -29 -36 -22 0 -28 23 -9 37 24 17 32 16 38 -1z m24 -198 c-21 -14 -27 -8
-27 23 l0 31 19 -23 c14 -17 16 -26 8 -31z"/>
<path d="M13945 2891 c-19 -19 -348 -180 -357 -175 -4 3 -8 0 -8 -7 0 -8 -4
-8 -15 1 -13 11 -14 10 -9 -4 4 -10 13 -15 20 -12 29 11 28 10 -124 -224 -77
-118 -82 -123 -198 -180 l-103 -50 -141 0 -140 0 -244 -122 c-180 -90 -242
-126 -238 -136 4 -11 -3 -14 -31 -10 -38 4 -50 -5 -21 -16 9 -3 222 -6 475 -6
l460 0 237 120 237 119 55 86 c32 49 69 93 87 105 38 22 73 75 73 108 0 12 27
63 60 112 33 49 60 94 60 100 0 8 -118 200 -124 200 -1 0 -6 -4 -11 -9z m60
-96 l55 -85 -66 -100 c-37 -56 -69 -98 -72 -95 -3 3 9 27 28 53 95 133 92 127
76 166 -8 20 -28 55 -44 78 -38 57 -44 68 -37 68 3 0 30 -38 60 -85z m-87
-349 c-13 -20 -33 -39 -45 -42 -13 -4 -46 -43 -84 -101 l-63 -95 -230 -115
-231 -116 -113 -4 c-78 -3 -112 -1 -107 6 4 7 48 11 110 11 l104 0 103 50 c57
27 108 53 113 57 6 5 43 23 83 42 140 64 158 77 212 159 55 84 78 112 94 112
6 1 24 19 39 41 35 50 48 45 15 -5z m-688 -436 c0 -5 -5 -10 -11 -10 -5 0 -7
5 -4 10 3 6 8 10 11 10 2 0 4 -4 4 -10z m-750 -30 c0 -5 -18 -10 -40 -10 -22
0 -40 5 -40 10 0 6 18 10 40 10 22 0 40 -4 40 -10z m170 -2 c0 -5 -20 -8 -44
-8 -25 0 -47 3 -49 8 -3 4 17 7 44 7 27 0 49 -3 49 -7z m30 2 c0 -5 -5 -10
-11 -10 -5 0 -7 5 -4 10 3 6 8 10 11 10 2 0 4 -4 4 -10z m40 0 c0 -5 -7 -10
-15 -10 -8 0 -15 5 -15 10 0 6 7 10 15 10 8 0 15 -4 15 -10z m120 0 c0 -5 -22
-7 -52 -3 -72 8 -73 13 -5 13 32 0 57 -4 57 -10z m165 0 c-3 -5 -33 -10 -66
-10 -33 0 -59 4 -59 10 0 6 29 10 66 10 41 0 63 -4 59 -10z"/>
<path d="M11114 2615 c-4 -8 -3 -22 0 -31 3 -8 1 -24 -4 -35 -6 -10 -8 -30 -4
-43 11 -46 42 -40 187 38 76 40 141 76 144 80 3 3 -67 6 -156 6 -134 0 -163
-3 -167 -15z"/>
<path d="M11090 2581 c0 -6 4 -13 10 -16 6 -3 7 1 4 9 -7 18 -14 21 -14 7z"/>
<path d="M9825 2503 c-16 -3 -36 -10 -44 -16 -11 -9 -13 -9 -8 0 8 12 -30 6
-49 -8 -9 -7 -40 -16 -67 -18 -4 -1 3 -13 17 -28 30 -32 26 -42 -8 -19 -33 21
-36 20 -36 -9 0 -19 -5 -25 -21 -25 -11 0 -18 4 -15 9 7 11 -74 -8 -91 -22
-19 -14 -16 -37 5 -36 10 0 12 3 4 6 -17 7 -5 23 19 23 21 0 26 -16 7 -23 -7
-3 8 -6 35 -6 26 -1 47 3 47 7 0 5 9 19 20 32 l20 24 -2 -25 c-2 -13 -7 -27
-13 -31 -6 -4 -2 -8 8 -8 9 0 17 8 18 18 0 10 3 12 6 5 2 -7 9 -13 14 -13 4 0
5 7 2 17 -4 11 -3 14 5 9 7 -4 14 3 18 19 7 28 6 27 28 19 13 -5 12 -9 -9 -26
-26 -20 -35 -53 -12 -45 6 2 11 10 9 17 -2 7 5 9 17 5 24 -7 101 12 101 25 0
13 -13 13 -27 -1 -12 -12 -53 4 -53 21 0 12 40 34 48 26 3 -3 1 -6 -5 -6 -6 0
-13 -6 -16 -14 -4 -10 4 -14 31 -13 20 1 44 -2 53 -7 12 -5 18 -1 22 13 3 13
0 21 -8 21 -7 0 -15 7 -19 15 -6 17 9 20 20 4 4 -8 9 -7 15 2 7 11 9 10 9 -3
0 -10 6 -18 13 -18 18 0 49 34 40 43 -10 11 -25 8 -18 -3 3 -5 -1 -10 -11 -10
-14 0 -14 3 -4 15 8 10 9 19 4 24 -12 12 -81 20 -119 14z m-55 -38 c8 -9 9
-15 2 -15 -6 0 -14 5 -17 10 -4 6 -11 7 -17 4 -7 -4 -8 -2 -4 4 10 16 21 15
36 -3z m84 -7 c15 -22 12 -43 -5 -33 -5 4 -9 1 -9 -6 0 -7 -3 -9 -6 -6 -4 4
-1 13 5 21 15 18 -1 30 -29 21 -22 -7 -28 10 -7 18 24 10 36 7 51 -15z m-144
-8 c0 -5 -2 -10 -4 -10 -3 0 -8 5 -11 10 -3 6 -1 10 4 10 6 0 11 -4 11 -10z"/>
<path d="M9620 2450 c-8 -5 -11 -12 -7 -16 4 -4 13 -2 19 4 15 15 7 24 -12 12z"/>
<path d="M10041 2382 c-13 -25 -14 -42 -2 -42 10 0 25 50 17 57 -2 3 -9 -4
-15 -15z"/>
<path d="M3703 2364 c0 -7 6 -15 14 -18 7 -3 13 -1 13 5 0 6 5 7 12 3 6 -4 8
-3 5 3 -10 17 -44 22 -44 7z"/>
<path d="M10067 2366 c-6 -14 1 -26 14 -26 4 0 7 9 6 20 -1 23 -12 26 -20 6z"/>
<path d="M7965 2360 c3 -5 8 -10 11 -10 2 0 4 5 4 10 0 6 -5 10 -11 10 -5 0
-7 -4 -4 -10z"/>
<path d="M8115 2350 c-18 -20 -18 -20 11 -19 33 2 74 18 74 31 0 17 -67 8 -85
-12z"/>
<path d="M10660 2360 c0 -5 7 -7 15 -4 8 4 15 8 15 10 0 2 -7 4 -15 4 -8 0
-15 -4 -15 -10z"/>
<path d="M8602 2353 c-15 -6 -6 -23 12 -23 7 0 13 7 13 15 0 16 -4 17 -25 8z"/>
<path d="M9452 2344 c-7 -8 -8 -14 -3 -14 10 0 25 19 20 25 -2 1 -10 -3 -17
-11z"/>
<path d="M10365 2350 c-19 -8 -19 -9 3 -9 12 -1 22 4 22 9 0 6 -1 10 -2 9 -2
0 -12 -4 -23 -9z"/>
<path d="M10875 2340 c-3 -5 -1 -10 4 -10 6 0 11 5 11 10 0 6 -2 10 -4 10 -3
0 -8 -4 -11 -10z"/>
<path d="M11410 2259 c0 -6 9 -13 20 -16 17 -5 20 -14 20 -69 0 -50 3 -64 15
-64 12 0 15 14 15 65 0 51 3 65 15 65 8 0 15 7 15 15 0 11 -12 15 -50 15 -30
0 -50 -4 -50 -11z"/>
<path d="M11530 2190 c0 -64 3 -80 15 -80 11 0 15 13 16 48 l2 47 10 -48 c13
-62 37 -60 52 3 l10 45 3 -47 c2 -34 7 -48 18 -48 11 0 14 17 14 80 0 78 -1
80 -25 80 -20 0 -25 -6 -30 -37 -11 -66 -18 -70 -27 -15 -8 46 -12 52 -34 52
-23 0 -24 -2 -24 -80z"/>
</g>
</svg>
